<?xml version="1.0" encoding="UTF-8"?>
<!DOCTYPE svg PUBLIC "-//W3C//DTD SVG 1.1//EN" "http://www.w3.org/Graphics/SVG/1.1/DTD/svg11.dtd">
<!-- Creator: CorelDRAW 2017 -->
<svg xmlns="http://www.w3.org/2000/svg" xml:space="preserve" width="11in" height="8.5in" version="1.1" style="shape-rendering:geometricPrecision; text-rendering:geometricPrecision; image-rendering:optimizeQuality; fill-rule:evenodd; clip-rule:evenodd"
viewBox="0 0 11000 8500"
 xmlns:xlink="http://www.w3.org/1999/xlink">
 <defs>
  <style type="text/css">
   <![CDATA[
    .fil40 {fill:#008A81;fill-rule:nonzero}
    .fil19 {fill:#02CCC0;fill-rule:nonzero}
    .fil28 {fill:#163560;fill-rule:nonzero}
    .fil29 {fill:#1C468A;fill-rule:nonzero}
    .fil11 {fill:#1F76D9;fill-rule:nonzero}
    .fil33 {fill:#233862;fill-rule:nonzero}
    .fil16 {fill:#2B478B;fill-rule:nonzero}
    .fil30 {fill:#2C3A64;fill-rule:nonzero}
    .fil22 {fill:#2E3552;fill-rule:nonzero}
    .fil18 {fill:#568CDB;fill-rule:nonzero}
    .fil17 {fill:#699DEE;fill-rule:nonzero}
    .fil39 {fill:#95C722;fill-rule:nonzero}
    .fil37 {fill:#96D10C;fill-rule:nonzero}
    .fil38 {fill:#A7EB09;fill-rule:nonzero}
    .fil15 {fill:#AFCDFB;fill-rule:nonzero}
    .fil13 {fill:#B5453C;fill-rule:nonzero}
    .fil9 {fill:#C0D8FB;fill-rule:nonzero}
    .fil4 {fill:#C0D9F7;fill-rule:nonzero}
    .fil25 {fill:#C65447;fill-rule:nonzero}
    .fil8 {fill:#CDE0FB;fill-rule:nonzero}
    .fil26 {fill:#D1D1D1;fill-rule:nonzero}
    .fil5 {fill:#D1E3F6;fill-rule:nonzero}
    .fil6 {fill:#D6E6F7;fill-rule:nonzero}
    .fil2 {fill:#D9E7F7;fill-rule:nonzero}
    .fil35 {fill:#DD6D22;fill-rule:nonzero}
    .fil3 {fill:#DEEBFB;fill-rule:nonzero}
    .fil0 {fill:#DEF0FF;fill-rule:nonzero}
    .fil10 {fill:#DFEBFD;fill-rule:nonzero}
    .fil27 {fill:#E3E3E3;fill-rule:nonzero}
    .fil1 {fill:#E3EDF9;fill-rule:nonzero}
    .fil7 {fill:#E7F0F9;fill-rule:nonzero}
    .fil36 {fill:#EBEEF2;fill-rule:nonzero}
    .fil21 {fill:#ED7D2B;fill-rule:nonzero}
    .fil32 {fill:#ED985F;fill-rule:nonzero}
    .fil31 {fill:#EFDECE;fill-rule:nonzero}
    .fil23 {fill:#F4A269;fill-rule:nonzero}
    .fil14 {fill:#F4D2B8;fill-rule:nonzero}
    .fil20 {fill:#F99746;fill-rule:nonzero}
    .fil12 {fill:#FCECDB;fill-rule:nonzero}
    .fil24 {fill:#FFB27D;fill-rule:nonzero}
    .fil34 {fill:white;fill-rule:nonzero}
    .fil43 {fill:#02CCC0;fill-opacity:0.501961}
    .fil41 {fill:#FEB546;fill-opacity:0.501961}
    .fil42 {fill:#FF5B7E;fill-opacity:0.501961}
   ]]>
  </style>
 </defs>
 <g id="Layer_x0020_1">
  <metadata id="CorelCorpID_0Corel-Layer"/>
  <path class="fil0" d="M-39.39 8102.86l3699.79 -21.57 986.22 -0.31 326.69 -0.16 988.1 -0.31 4514.15 -1.4c0,0 1032.57,-1487.97 -70.43,-2901.22 -1143.47,-1465.23 -1699.47,-271.91 -2050.98,-2334.45 -884.81,-5191.7 -9632.47,-2170 -7338.03,2247.92 826.16,1590.76 -1626.21,745.26 -1055.52,3011.5z"/>
  <polygon class="fil1" points="6847.46,8040.55 3662.49,8040.55 3737.17,8040.17 4816.79,8039.89 5174.42,8039.74 6256.1,8039.46 6847.46,8039.32 "/>
  <path class="fil2" d="M3662.49 8040.55l-2367.56 0 0 -5077.69c0,-224.19 172.35,-406.59 384.21,-406.59l4845.8 0c177.83,0 322.52,153.09 322.52,341.27l0 5141.78 -591.36 0.14 -1081.68 0.28 -357.63 0.15 -1079.62 0.29 -74.68 0.37zm-2280.22 -1830.98l0 1738.56 5377.86 0 0 -1738.56 43.66 0 0 -102.74 -43.66 0 0 -727.9 43.66 0 0 -102.78 -43.66 0 0 -724.86 43.66 0 0 -102.79 -43.66 0 0 -724.84 43.66 0 0 -102.79 -43.66 0 0 -723.33c0,-137.22 -105.5,-248.85 -235.19,-248.85l-4845.8 0c-163.7,0 -296.87,140.94 -296.87,314.17l0 658.02 -43.67 0 0 102.79 43.67 0 0 724.84 -43.67 0 0 102.79 43.67 0 0 724.86 -43.67 0 0 102.78 43.67 0 0 727.9 -43.67 0 0 102.74 43.67 0z"/>
  <polygon class="fil2" points="6803.79,3723.66 1338.6,3723.66 1338.6,3620.87 1462.65,3620.87 1462.65,3623.2 1599.12,3623.2 1599.12,3620.87 1630.96,3620.87 1630.96,3623.2 1749.23,3623.2 1749.23,3620.87 1815.38,3620.87 1816.27,3628.63 1876.15,3620.87 3175.61,3620.87 3175.61,3623.2 3733.67,3623.2 3733.67,3620.87 5275.93,3620.87 5275.93,3623.2 5412.39,3623.2 5412.39,3620.87 5444.24,3620.87 5444.24,3623.2 5562.48,3623.2 5562.48,3620.87 5628.66,3620.87 5629.54,3628.63 5689.41,3620.87 5854.13,3620.87 5854.13,3623.2 6412.15,3623.2 6412.15,3620.87 6803.79,3620.87 "/>
  <polygon class="fil2" points="6803.79,4551.29 1338.6,4551.29 1338.6,4448.5 1910.08,4448.5 1910.7,4453.9 1952.36,4448.5 3079.69,4448.5 3079.69,4448.59 3216.14,4448.59 3216.14,4448.5 3247.99,4448.5 3247.99,4448.59 3366.28,4448.59 3366.28,4448.5 3432.67,4448.5 3433.29,4454 3475.8,4448.5 6803.79,4448.5 "/>
  <polygon class="fil2" points="6803.79,5378.93 1338.6,5378.93 1338.6,5276.15 2486.82,5276.15 2486.82,5276.39 2607.04,5276.39 2607.04,5276.15 2623.76,5276.15 2623.76,5276.39 2743.96,5276.39 2743.96,5276.15 2781.06,5276.15 2781.06,5276.39 2901.27,5276.39 2901.27,5276.15 2968.38,5276.15 2968.38,5276.39 3088.59,5276.39 3088.59,5276.15 3105.33,5276.15 3105.33,5276.39 3225.54,5276.39 3225.54,5276.15 3262.62,5276.15 3262.62,5276.39 3382.83,5276.39 3382.83,5276.15 4527.46,5276.15 4527.46,5276.39 4647.71,5276.39 4647.71,5276.15 4664.41,5276.15 4664.41,5276.39 4784.61,5276.39 4784.61,5276.15 4821.7,5276.15 4821.7,5276.39 4941.91,5276.39 4941.91,5276.15 4961.74,5276.15 4961.74,5276.39 5056.89,5276.39 5056.89,5276.15 5069.11,5276.15 5069.11,5276.39 5189.32,5276.39 5189.32,5276.15 5249.94,5276.15 5249.94,5276.39 5345.06,5276.39 5345.06,5276.15 5519.62,5276.15 5521.06,5276.39 5521.09,5276.15 5538.46,5276.15 5538.46,5278.7 6096.48,5278.7 6096.48,5276.15 6803.79,5276.15 "/>
  <polygon class="fil2" points="6803.79,6209.57 1338.6,6209.57 1338.6,6106.83 2271.57,6106.83 2313.52,6112.22 2314.15,6106.83 6084.84,6106.83 6126.81,6112.22 6127.43,6106.83 6803.79,6106.83 "/>
  <polygon class="fil2" points="2530.67,6106.83 2667.15,6106.83 2667.15,5569.36 2530.67,5569.36 "/>
  <polygon class="fil2" points="2498.82,6106.83 2380.56,6106.83 2380.56,5522.63 2498.82,5522.63 "/>
  <polygon class="fil3" points="2313.52,6112.22 2271.57,6106.83 2196.13,6097.03 2263.17,5517.19 2380.56,5532.39 2314.15,6106.83 "/>
  <polygon class="fil2" points="6343.92,6106.83 6480.42,6106.83 6480.42,5569.36 6343.92,5569.36 "/>
  <polygon class="fil2" points="6312.07,6106.83 6193.83,6106.83 6193.83,5522.63 6312.07,5522.63 "/>
  <polygon class="fil3" points="6126.81,6112.22 6084.84,6106.83 6009.42,6097.03 6076.43,5517.19 6193.83,5532.39 6127.43,6106.83 "/>
  <polygon class="fil4" points="2088.92,6106.83 1530.88,6106.83 1530.88,6001.67 2088.92,6001.67 "/>
  <polygon class="fil5" points="2020.69,6001.67 1462.65,6001.67 1462.65,5929.42 2020.69,5929.42 "/>
  <polygon class="fil3" points="2052.53,5929.42 1517.52,5929.42 1517.52,5857.13 2052.53,5857.13 "/>
  <polygon class="fil2" points="1987.74,5857.13 1504.57,5857.13 1504.57,5801.92 1987.74,5801.92 "/>
  <polygon class="fil3" points="4767.44,6106.83 4209.41,6106.83 4209.41,6001.67 4767.44,6001.67 "/>
  <polygon class="fil5" points="4699.21,6001.67 4141.19,6001.67 4141.19,5929.42 4699.21,5929.42 "/>
  <polygon class="fil3" points="4731.06,5929.42 4196.04,5929.42 4196.04,5857.13 4731.06,5857.13 "/>
  <polygon class="fil2" points="4666.28,5857.13 4183.11,5857.13 4183.11,5801.92 4666.28,5801.92 "/>
  <polygon class="fil5" points="4680.83,5801.92 4122.8,5801.92 4122.8,5729.62 4680.83,5729.62 "/>
  <polygon class="fil3" points="4712.68,5729.62 4177.65,5729.62 4177.65,5657.37 4711.07,5657.37 4712.68,5666.99 "/>
  <polygon class="fil2" points="4647.9,5657.37 4164.72,5657.37 4164.72,5602.17 4647.9,5602.17 "/>
  <polygon class="fil6" points="3791.11,6104.5 3886.22,6104.5 3886.22,5522.63 3791.11,5522.63 "/>
  <polygon class="fil6" points="4960.84,6104.5 5055.95,6104.5 5055.95,5495.97 4960.84,5495.97 "/>
  <polygon class="fil6" points="5249,6104.5 5344.16,6104.5 5344.16,5522.63 5249,5522.63 "/>
  <polygon class="fil7" points="3791.11,6104.5 3670.86,6104.5 3670.86,5474.67 3791.11,5474.67 "/>
  <polygon class="fil7" points="5363.98,6104.5 5484.19,6104.5 5484.19,5474.67 5363.98,5474.67 "/>
  <polygon class="fil5" points="3670.86,6104.5 3550.64,6104.5 3550.64,5504.68 3670.86,5504.68 "/>
  <polygon class="fil5" points="4784.85,6104.5 4712.68,5666.99 4711.07,5657.37 4674.25,5433.96 4792.67,5412.08 4903.26,6082.59 "/>
  <polygon class="fil2" points="3430.43,6104.5 3550.65,6104.5 3550.65,5596.67 3430.43,5596.67 "/>
  <polygon class="fil2" points="5521.28,6104.5 5641.49,6104.5 5641.49,5596.67 5521.28,5596.67 "/>
  <polygon class="fil4" points="3430.43,6104.5 3310.22,6104.5 3310.22,5569.36 3430.43,5569.36 "/>
  <polygon class="fil3" points="3170.78,6104.5 3290.99,6104.5 3290.99,5569.35 3170.78,5569.35 "/>
  <polygon class="fil3" points="5658.18,6104.5 5778.44,6104.5 5778.44,5569.35 5658.18,5569.35 "/>
  <polygon class="fil8" points="3028.06,6104.5 3148.26,6104.5 3148.26,5522.63 3028.06,5522.63 "/>
  <polygon class="fil8" points="5116.58,6104.5 5236.79,6104.5 5236.79,5522.63 5116.58,5522.63 "/>
  <polygon class="fil2" points="5412.39,3623.2 5275.93,3623.2 5275.93,3085.73 5412.39,3085.73 "/>
  <polygon class="fil2" points="5562.48,3623.2 5444.24,3623.2 5444.24,3039.04 5562.48,3039.04 "/>
  <polygon class="fil3" points="5629.54,3628.63 5628.66,3620.87 5562.48,3048.8 5679.88,3033.59 5746.94,3613.44 5689.41,3620.87 "/>
  <polygon class="fil2" points="3216.14,4448.59 3079.69,4448.59 3079.69,3911.12 3216.14,3911.12 "/>
  <polygon class="fil2" points="3366.28,4448.59 3247.99,4448.59 3247.99,3864.42 3366.28,3864.42 "/>
  <polygon class="fil3" points="3433.29,4454 3432.67,4448.5 3366.28,3874.19 3483.68,3858.98 3550.69,4438.81 3475.8,4448.5 "/>
  <polygon class="fil2" points="1599.12,3623.2 1462.65,3623.2 1462.65,3085.73 1599.12,3085.73 "/>
  <polygon class="fil2" points="1749.23,3623.2 1630.96,3623.2 1630.96,3039.04 1749.23,3039.04 "/>
  <polygon class="fil3" points="1816.27,3628.63 1815.38,3620.87 1749.23,3048.8 1866.61,3033.59 1933.66,3613.44 1876.15,3620.87 "/>
  <polygon class="fil4" points="6412.15,3623.2 5854.13,3623.2 5854.13,3518.08 6412.15,3518.08 "/>
  <polygon class="fil5" points="6480.43,3518.08 5922.36,3518.08 5922.36,3445.81 6480.43,3445.81 "/>
  <polygon class="fil3" points="6425.53,3445.81 5890.54,3445.81 5890.54,3373.52 6425.53,3373.52 "/>
  <polygon class="fil2" points="6438.51,3373.52 5955.33,3373.52 5955.33,3318.31 6438.51,3318.31 "/>
  <polygon class="fil3" points="3733.67,3623.2 3175.61,3623.2 3175.61,3518.08 3733.67,3518.08 "/>
  <polygon class="fil5" points="3801.89,3518.08 3243.83,3518.08 3243.83,3445.81 3801.89,3445.81 "/>
  <polygon class="fil3" points="3747,3445.81 3212.02,3445.81 3212.02,3373.52 3747,3373.52 "/>
  <polygon class="fil2" points="3759.98,3373.52 3276.8,3373.52 3276.8,3318.31 3759.98,3318.31 "/>
  <polygon class="fil5" points="3820.28,3318.31 3262.22,3318.31 3262.22,3246.04 3820.28,3246.04 "/>
  <polygon class="fil3" points="3765.39,3246.04 3230.37,3246.04 3230.37,3183.41 3231.98,3173.76 3765.39,3173.76 "/>
  <polygon class="fil2" points="3778.31,3173.76 3295.19,3173.76 3295.19,3118.56 3778.31,3118.56 "/>
  <polygon class="fil6" points="4056.86,3620.87 4151.98,3620.87 4151.98,3039.03 4056.86,3039.03 "/>
  <polygon class="fil6" points="2887.09,3620.87 2982.2,3620.87 2982.2,3012.37 2887.09,3012.37 "/>
  <polygon class="fil6" points="2598.92,3620.87 2694.04,3620.87 2694.04,3039.03 2598.92,3039.03 "/>
  <polygon class="fil7" points="4151.97,3620.87 4272.19,3620.87 4272.19,2991.06 4151.97,2991.06 "/>
  <polygon class="fil7" points="2458.88,3620.87 2579.1,3620.87 2579.1,2991.06 2458.88,2991.06 "/>
  <polygon class="fil5" points="4272.19,3620.87 4392.4,3620.87 4392.4,3021.07 4272.19,3021.07 "/>
  <polygon class="fil5" points="3158.2,3620.87 3158.2,3620.87 3039.78,3599 3150.37,2928.48 3268.83,2950.37 3231.98,3173.76 3230.37,3183.41 "/>
  <polygon class="fil3" points="5480.3,4448.5 4922.28,4448.5 4922.28,4343.41 5480.3,4343.41 "/>
  <polygon class="fil5" points="5548.53,4343.41 4990.5,4343.41 4990.5,4271.13 5548.53,4271.13 "/>
  <polygon class="fil3" points="5493.67,4271.13 4958.65,4271.13 4958.65,4198.84 5493.67,4198.84 "/>
  <polygon class="fil2" points="5506.6,4198.84 5023.48,4198.84 5023.48,4143.64 5506.6,4143.64 "/>
  <polygon class="fil5" points="5566.91,4143.64 5008.89,4143.64 5008.89,4071.36 5566.91,4071.36 "/>
  <polygon class="fil3" points="5512.07,4071.36 4977.04,4071.36 4977.04,4008.74 4978.65,3999.08 5512.07,3999.08 "/>
  <polygon class="fil2" points="5525,3999.08 5041.81,3999.08 5041.81,3943.88 5525,3943.88 "/>
  <polygon class="fil5" points="4904.88,4446.19 4786.46,4424.33 4897.04,3753.8 5015.47,3775.68 4978.65,3999.08 4977.04,4008.74 "/>
  <polygon class="fil2" points="4392.39,3620.87 4512.6,3620.87 4512.6,3113.05 4392.39,3113.05 "/>
  <polygon class="fil2" points="2301.57,3620.87 2421.8,3620.87 2421.8,3113.05 2301.57,3113.05 "/>
  <polygon class="fil4" points="4512.6,3620.87 4632.86,3620.87 4632.86,3085.73 4512.6,3085.73 "/>
  <polygon class="fil3" points="4652.06,3620.87 4772.31,3620.87 4772.31,3085.73 4652.06,3085.73 "/>
  <polygon class="fil3" points="2164.65,3620.87 2284.87,3620.87 2284.87,3085.73 2164.65,3085.73 "/>
  <polygon class="fil7" points="4474.58,4448.5 4594.8,4448.5 4594.8,3818.7 4474.58,3818.7 "/>
  <polygon class="fil2" points="4317.28,4448.5 4437.49,4448.5 4437.49,3940.69 4317.28,3940.69 "/>
  <polygon class="fil3" points="4180.33,4448.5 4300.55,4448.5 4300.55,3913.37 4180.33,3913.37 "/>
  <polygon class="fil3" points="3778.54,4448.5 3898.76,4448.5 3898.76,3913.37 3778.54,3913.37 "/>
  <polygon class="fil3" points="3610.78,4448.5 3730.99,4448.5 3730.99,3913.37 3610.78,3913.37 "/>
  <polygon class="fil7" points="1717.98,4448.5 1838.2,4448.5 1838.2,3818.7 1717.98,3818.7 "/>
  <polygon class="fil7" points="1910.7,4453.9 1910.08,4448.5 1838.42,3828.74 1957.75,3813.31 2030.04,4438.45 1952.36,4448.5 "/>
  <polygon class="fil2" points="1560.67,4448.5 1680.9,4448.5 1680.9,3940.69 1560.67,3940.69 "/>
  <polygon class="fil3" points="1423.74,4448.5 1543.96,4448.5 1543.96,3913.37 1423.74,3913.37 "/>
  <polygon class="fil8" points="4794.77,3620.87 4914.98,3620.87 4914.98,3039.03 4794.77,3039.03 "/>
  <polygon class="fil6" points="3513.33,5276.15 3608.45,5276.15 3608.45,4694.32 3513.33,4694.32 "/>
  <polygon class="fil7" points="3608.44,5276.15 3728.7,5276.15 3728.7,4646.31 3608.44,4646.31 "/>
  <polygon class="fil5" points="3728.7,5276.15 3848.92,5276.15 3848.92,4676.33 3728.7,4676.33 "/>
  <polygon class="fil2" points="3848.91,5276.15 3969.13,5276.15 3969.13,4768.32 3848.91,4768.32 "/>
  <polygon class="fil4" points="3969.13,5276.15 4089.34,5276.15 4089.34,4741 3969.13,4741 "/>
  <polygon class="fil3" points="4108.57,5276.15 4228.78,5276.15 4228.78,4741 4108.57,4741 "/>
  <polygon class="fil8" points="4251.25,5276.15 4371.51,5276.15 4371.51,4694.32 4251.25,4694.32 "/>
  <polygon class="fil8" points="5690.17,4448.5 5810.37,4448.5 5810.37,3866.67 5690.17,3866.67 "/>
  <polygon class="fil8" points="5821.11,4448.5 5941.32,4448.5 5941.32,3866.67 5821.11,3866.67 "/>
  <polygon class="fil8" points="2706.26,3620.87 2826.46,3620.87 2826.46,3039.03 2706.26,3039.03 "/>
  <polygon class="fil3" points="6096.48,5278.7 5538.46,5278.7 5538.46,5173.6 6096.48,5173.6 "/>
  <polygon class="fil5" points="6164.71,5173.6 5606.68,5173.6 5606.68,5101.35 6164.71,5101.35 "/>
  <polygon class="fil3" points="6109.85,5101.35 5574.83,5101.35 5574.83,5029.06 6109.85,5029.06 "/>
  <polygon class="fil2" points="6122.79,5029.06 5639.65,5029.06 5639.65,4973.84 6122.79,4973.84 "/>
  <polygon class="fil5" points="6183.1,4973.84 5625.07,4973.84 5625.07,4901.55 6183.1,4901.55 "/>
  <polygon class="fil3" points="6128.24,4901.55 5593.22,4901.55 5593.22,4838.91 5594.83,4829.3 6128.24,4829.3 "/>
  <polygon class="fil2" points="6141.17,4829.3 5658,4829.3 5658,4774.1 6141.17,4774.1 "/>
  <polygon class="fil6" points="5345.06,5276.39 5249.94,5276.39 5249.94,4667.9 5345.06,4667.9 "/>
  <polygon class="fil6" points="5056.89,5276.39 4961.74,5276.39 4961.74,4694.57 5056.89,4694.57 "/>
  <polygon class="fil7" points="4941.91,5276.39 4821.7,5276.39 4821.7,4646.59 4941.91,4646.59 "/>
  <polygon class="fil5" points="5521.06,5276.39 5519.62,5276.15 5402.63,5254.52 5513.23,4584.01 5631.65,4605.88 5594.83,4829.3 5593.22,4838.91 5521.09,5276.15 "/>
  <polygon class="fil2" points="4784.61,5276.39 4664.41,5276.39 4664.41,4768.6 4784.61,4768.6 "/>
  <polygon class="fil3" points="4647.71,5276.39 4527.46,5276.39 4527.46,4741.24 4647.71,4741.24 "/>
  <polygon class="fil7" points="3382.83,5276.39 3262.62,5276.39 3262.62,4646.59 3382.83,4646.59 "/>
  <polygon class="fil2" points="3225.54,5276.39 3105.33,5276.39 3105.33,4768.6 3225.54,4768.6 "/>
  <polygon class="fil3" points="3088.59,5276.39 2968.38,5276.39 2968.38,4741.24 3088.59,4741.24 "/>
  <polygon class="fil7" points="2901.27,5276.39 2781.06,5276.39 2781.06,4646.59 2901.27,4646.59 "/>
  <polygon class="fil2" points="2743.96,5276.39 2623.76,5276.39 2623.76,4768.6 2743.96,4768.6 "/>
  <polygon class="fil3" points="2607.04,5276.39 2486.82,5276.39 2486.82,4741.24 2607.04,4741.24 "/>
  <polygon class="fil8" points="5189.32,5276.39 5069.11,5276.39 5069.11,4694.57 5189.32,4694.57 "/>
  <path class="fil9" d="M8166.78 3489.67l-705.78 0c-32.39,0 -58.93,-28.06 -58.93,-62.35l0 -720.85c0,-34.29 26.54,-62.34 58.93,-62.34l705.78 0c32.4,0 58.85,28.05 58.85,62.34l0 720.85c0,34.29 -26.44,62.35 -58.85,62.35z"/>
  <path class="fil10" d="M8136.14 3453.04l-644.58 0c-29.58,0 -53.82,-25.62 -53.82,-56.94l0 -658.39c0,-31.31 24.24,-56.93 53.82,-56.93l644.58 0c29.67,0 53.87,25.62 53.87,56.93l0 658.39c0,31.32 -24.2,56.94 -53.87,56.94z"/>
  <path class="fil11" d="M7796.8 2757.93c0,-9.98 7.61,-18.05 17.05,-18.05 9.44,0 17.04,8.07 17.04,18.05 0,9.96 -7.6,18.06 -17.04,18.06 -9.43,0 -17.05,-8.09 -17.05,-18.06z"/>
  <path class="fil11" d="M7934.42 2783.45c4.59,-8.72 15.03,-11.85 23.23,-7.01 8.2,4.84 11.22,15.83 6.63,24.55 -4.59,8.72 -14.93,11.86 -23.22,7 -8.2,-4.83 -11.22,-15.82 -6.64,-24.54z"/>
  <path class="fil11" d="M8052.41 2882.61c7.91,-5.41 18.44,-3 23.52,5.38 5.17,8.37 2.83,19.55 -5.07,24.95 -7.91,5.41 -18.44,3 -23.52,-5.38 -5.17,-8.37 -2.83,-19.55 5.07,-24.95z"/>
  <path class="fil11" d="M8110.76 3036.06c9.47,0 17.08,8.09 17.08,18.06 0,9.98 -7.61,18.06 -17.08,18.06 -9.37,0 -17.07,-8.09 -17.07,-18.06 0,-9.96 7.71,-18.06 17.07,-18.06z"/>
  <path class="fil11" d="M8081 3214.17c6.64,7.06 6.64,18.49 0,25.53 -6.73,7.06 -17.47,7.06 -24.2,0 -6.63,-7.04 -6.63,-18.47 0,-25.53 6.73,-7.06 17.47,-7.06 24.2,0z"/>
  <path class="fil11" d="M7973.85 3327.84c6.63,7.06 6.63,18.48 0,25.53 -6.64,7.05 -17.47,7.05 -24.11,0 -6.73,-7.06 -6.73,-18.48 0,-25.53 6.64,-7.04 17.47,-7.04 24.11,0z"/>
  <path class="fil11" d="M7796.8 3386.43c0,-9.98 7.61,-18.05 17.05,-18.05 9.44,0 17.04,8.07 17.04,18.05 0,9.97 -7.6,18.06 -17.04,18.06 -9.43,0 -17.05,-8.09 -17.05,-18.06z"/>
  <path class="fil11" d="M7692.7 2783.45c-4.56,-8.72 -14.94,-11.85 -23.17,-7.01 -8.24,4.84 -11.23,15.83 -6.63,24.55 4.57,8.72 14.94,11.86 23.18,7 8.23,-4.83 11.23,-15.82 6.62,-24.54z"/>
  <path class="fil11" d="M7574.77 2882.61c-7.91,-5.41 -18.47,-3 -23.57,5.38 -5.11,8.37 -2.82,19.55 5.1,24.95 7.91,5.41 18.47,3 23.58,-5.38 5.09,-8.37 2.81,-19.55 -5.11,-24.95z"/>
  <path class="fil11" d="M7516.38 3036.06c-9.44,0 -17.09,8.09 -17.09,18.06 0,9.98 7.65,18.06 17.09,18.06 9.4,0 17.05,-8.09 17.05,-18.06 0,-9.96 -7.65,-18.06 -17.05,-18.06z"/>
  <path class="fil11" d="M7546.19 3214.17c-6.67,7.06 -6.67,18.49 0,25.53 6.66,7.06 17.49,7.06 24.15,0 6.62,-7.04 6.62,-18.47 0,-25.53 -6.67,-7.06 -17.5,-7.06 -24.15,0z"/>
  <path class="fil11" d="M7653.33 3327.84c-6.66,7.06 -6.66,18.48 0,25.53 6.67,7.05 17.45,7.05 24.11,0 6.67,-7.06 6.67,-18.48 0,-25.53 -6.67,-7.04 -17.45,-7.04 -24.11,0z"/>
  <path class="fil11" d="M7809.24 3054.12c0,-9.96 7.65,-18.06 17.1,-18.06 9.39,0 17.04,8.09 17.04,18.06 0,9.98 -7.65,18.06 -17.04,18.06 -9.45,0 -17.1,-8.09 -17.1,-18.06z"/>
  <polygon class="fil11" points="7824,3054.12 7828.65,3054.12 7828.65,2828.58 7824,2828.58 "/>
  <polygon class="fil11" points="7828.48,3059.62 7819.84,3047.98 7932.86,2954.13 7941.45,2965.76 "/>
  <path class="fil8" d="M8642.27 7523.85c0,0 738.98,-743.89 946.36,-570.96 207.39,172.94 -946.36,570.96 -946.36,570.96z"/>
  <path class="fil8" d="M8588.85 7666.93c0,0 1375,-651.44 1700.31,-307 325.41,344.44 -377.34,301.93 -637.5,263.42 -260.25,-38.52 -1062.81,43.58 -1062.81,43.58z"/>
  <path class="fil8" d="M8962.91 7477.67c0,0 6.83,-38.69 16.1,-95.31 18.25,-110.45 45.77,-289.13 50.65,-382.21 7.32,-140.81 114.28,-240.81 231.77,-97.44 117.5,143.31 -253.34,536.33 -253.34,536.33l-45.19 38.64z"/>
  <path class="fil10" d="M9374.83 4788.2c-106.18,-294.2 -579.48,-148.23 -579.48,-148.23 0,0 -277.15,564.26 -371.23,587.03 -94.07,22.77 147.94,-531.41 147.94,-531.41 -186.39,0.81 -634.03,290.42 -634.03,290.42 0,0 88.61,614.4 -7.91,611.94 -96.46,-2.42 -52.17,-548.22 -52.17,-548.22 -173.23,75.75 -318.94,314.09 -318.94,314.09 -174.2,381.42 297.56,598.45 297.56,598.45 0,0 26.35,213.61 -75.25,472.69l0 0c0,0 -23.94,48.39 -45.28,128.59l48.73 -5.2c2.63,-14.25 5.77,-28.08 9.4,-41.43l0.09 -0.25 0.14 -0.57c2.59,-8.32 6.3,-20.16 10.96,-34.61l0.04 -0.04 0 -0.05c11.94,-32.43 19.82,-56.3 24.61,-73.39l0.04 -0.13c35.39,-101.56 87.6,-234.45 127.9,-265.47 0,0 -6.15,-7.43 -12.69,-22.54 4.1,7.2 8.3,14.68 12.69,22.54 101.39,180.15 521.22,167.22 748.6,92.04 227.48,-75.19 119.65,-133.7 -16.1,-232.9 -135.84,-99.13 -394.94,-41.57 -476.62,-77.41 -81.58,-35.83 27.33,-92.04 183.37,-95.92 156.04,-3.93 249.05,151.65 501.51,150.19 252.56,-1.47 395.62,-519.62 395.62,-519.62 -167.26,75.14 -486.48,7.34 -504.43,-54.39 -17.86,-61.74 441.2,-104.35 510.87,-130.86 69.68,-26.52 180.35,-191.09 74.07,-485.34z"/>
  <path class="fil8" d="M1746.56 7386.24c-218.63,-282.94 193.3,-703.03 193.3,-703.03 0,0 696.67,30.3 772.61,-56.77 75.93,-87.11 -590.86,-149 -590.86,-149 108.28,-198.13 642.05,-507.97 642.05,-507.97 0,0 533.41,448.84 586.74,344.63 53.32,-104.2 -491.46,-371.89 -491.46,-371.89 172.02,-140.86 482.82,-158.66 482.82,-158.66 463.4,34.47 397.67,662.37 397.67,662.37 0,0 188,151.32 493.15,192.51l0 0c0,0 59.81,2.46 148.39,25.94l-33.01 48.91c-15.08,-5.4 -30.02,-10.04 -44.83,-13.87l-0.26 -0.05 -0.62 -0.15c-9.44,-2.08 -22.82,-4.97 -39.28,-8.32l-0.14 0c-37.72,-5.97 -64.95,-11.37 -83.98,-16.1l-0.17 -0.05c-116.99,-20.88 -273.58,-41.94 -326.32,-16.9 0,0 -3.54,-10.84 -14.14,-26.47 4.52,8.43 9.22,17.24 14.14,26.47 112.87,211.96 -141.65,651.8 -344.35,850.74 -202.76,198.95 -196.23,50.28 -212.25,-151.6 -16.01,-201.83 188.31,-444.76 201.28,-552.38 12.98,-107.67 -103.3,-24 -197.02,140 -93.73,163.96 0.63,352.82 -146.48,620.98 -147.05,268.2 -722.57,121.77 -722.57,121.77 167.99,-134.89 287.67,-514.13 239.26,-568.85 -48.41,-54.7 -353.81,409.86 -419.23,468.77 -65.42,58.94 -285.81,81.85 -504.44,-201.04z"/>
  <path class="fil12" d="M5783.23 7291.31l-2213.17 0 0 -1146.05 2221.57 0c205.62,0 372.32,176.42 372.32,394.01l0 349.13c0,222.52 -170.46,402.91 -380.72,402.91z"/>
  <path class="fil13" d="M8098.57 6616.78l0 172.43c0,92.13 -17.28,178.4 -47.62,252.55 -60.7,149.22 -173.79,249.56 -303.17,249.56l-4247.2 0c-28.09,0 -50.86,-32.63 -50.86,-72.78l0 -25.8c0,-40.19 22.77,-72.82 50.86,-72.82l2516.35 0c47.74,0 91.26,-30.3 108.71,-77.31l0.31 -0.85c24.25,-65.39 37.99,-139.96 37.99,-219.08l0 -219.2c0,-40.3 -3.67,-79.39 -10.52,-116.61 -0.09,-0.62 -0.22,-1.28 -0.36,-1.9 -18.33,-98.15 -100.65,-168.26 -195.24,-168.26l-2457.25 0c-28.09,0 -50.86,-32.63 -50.86,-72.86l0 -25.76c0,-40.25 22.77,-72.82 50.86,-72.82l4268.58 0c150.41,0 277.3,144.36 316.63,341.61 8.3,41.28 12.78,84.88 12.78,129.91z"/>
  <polygon class="fil14" points="3570.06,6718.29 3884.53,6737.56 3570.06,6749.16 "/>
  <polygon class="fil14" points="3570.06,6898.1 4318.22,6917.37 3570.06,6928.97 "/>
  <path class="fil12" d="M5683.05 5223.78l-1829.17 0 0 -965.82 1836.2 0c171.74,0 310.98,147.32 310.98,329.07l0 300.22c0,185.88 -142.4,336.52 -318,336.52z"/>
  <path class="fil15" d="M7602.46 4655.31l0 145.3c0,77.65 -14.31,150.37 -39.37,212.87 -50.32,125.75 -143.87,210.3 -250.98,210.3l-3515.76 0c-23.26,0 -42.1,-27.5 -42.1,-61.35l0 -21.73c0,-33.85 18.83,-61.35 42.1,-61.35l2143.19 0c11.46,-20.37 21.57,-42.38 30.07,-65.86 20.08,-55.12 31.41,-117.94 31.41,-184.65l0 -184.7c0,-34 -3,-66.94 -8.68,-98.29 -9.57,-53.18 -26.75,-101.86 -49.66,-143.44l-2146.32 0c-23.26,0 -42.1,-27.47 -42.1,-61.39l0 -21.7c0,-33.92 18.83,-61.38 42.1,-61.38l3533.47 0c124.51,0 229.51,121.65 262.12,287.9 6.85,34.79 10.51,71.54 10.51,109.46z"/>
  <polygon class="fil14" points="3853.88,4740.86 4114.17,4757.1 3853.88,4766.9 "/>
  <polygon class="fil14" points="3853.88,4892.41 4473.2,4908.65 3853.88,4918.41 "/>
  <path class="fil16" d="M4078.82 8040.55l2524 0 0 -751.28 -2545.43 0c-182.41,0 -330.22,156.48 -330.22,349.46l0 29.68c0,205.53 157.44,372.13 351.64,372.13z"/>
  <path class="fil12" d="M6470.72 8040.55l2874.83 0 0 -751.28 -2882.49 0c-185.4,0 -335.71,159.09 -335.71,355.33l0 32.57c0,200.7 153.71,363.38 343.37,363.38z"/>
  <path class="fil16" d="M5936.49 8040.55l3507.33 0c28.11,0 50.94,-24.15 50.94,-53.97l0 -4.45c0,-29.77 -22.83,-53.92 -50.94,-53.92l-3507.33 0c-28.14,0 -51,24.15 -51,53.92l0 4.45c0,29.83 22.87,53.97 51,53.97z"/>
  <path class="fil16" d="M5936.49 7401.67l3507.33 0c28.11,0 50.94,-24.2 50.94,-53.97l0 -4.46c0,-29.78 -22.83,-53.97 -50.94,-53.97l-3507.33 0c-28.14,0 -51,24.2 -51,53.97l0 4.46c0,29.78 22.87,53.97 51,53.97z"/>
  <polygon class="fil14" points="9345.56,7664.91 8955.39,7677.56 9345.56,7685.17 "/>
  <polygon class="fil14" points="9345.56,7492.05 8417.29,7504.65 9345.56,7512.27 "/>
  <path class="fil17" d="M8426.85 7502.14c0,0 39.81,32.28 52.89,85.35 2.34,9.29 3.81,19.18 4.1,29.64 2.24,70.5 0,230.06 0,230.06l117.5 -79.78 117.2 79.78 0 -216.23c0,-40.91 -10.15,-80.68 -28.79,-106.71 -8.98,-12.6 -20.01,-22.11 -32.4,-22.11l-230.5 0z"/>
  <path class="fil18" d="M8426.85 7502.14c0,0 39.81,32.28 52.89,85.35l235.38 3.13c0,0 -9.27,-75.95 -57.77,-88.48l-230.5 0z"/>
  <path class="fil12" d="M5718.98 6145.26l2846.46 0 0 -921.48 -2854.91 0c-205.62,0 -372.36,176.42 -372.36,394.06l0 124.43c0,222.57 170.5,403 380.81,403z"/>
  <path class="fil19" d="M5336.6 5581.29l0 198.38c0.22,30.44 7.2,59.37 19.77,85.89 22.28,47.2 62.01,86.4 111.93,111.59 38.38,19.27 82.77,30.25 129.92,30.25l3052.2 0c35.72,0 64.7,25.62 64.7,57.24l0 23.38c0,31.58 -28.98,57.24 -64.7,57.24l-5272.7 0c-151.35,0 -284.98,-66.43 -365.78,-168.12 -50.91,-64.06 -80.79,-142.13 -80.79,-226.45l0 -156.43c0,-57.76 14.94,-112.39 41.65,-161.11 67.78,-123.91 211.43,-209.37 377.63,-209.37l5299.99 0c35.72,0 64.7,25.57 64.7,57.2l0 23.38c0,31.58 -28.98,57.24 -64.7,57.24l-3061.55 0c-73.15,0 -139.35,27.5 -185.62,71.54 -20,19.07 -36.28,41.23 -47.78,65.57 -11.94,25.47 -18.65,53.31 -18.87,82.57z"/>
  <polygon class="fil14" points="8565.43,5684.5 8174.2,5699.98 8565.43,5709.31 "/>
  <polygon class="fil14" points="8565.43,5472.44 7634.58,5487.93 8565.43,5497.25 "/>
  <path class="fil20" d="M7644.2 5484.85c0,0 61.42,29.2 81.73,77.26 3.63,8.39 5.91,17.38 6.4,26.85 3.4,63.81 0,208.27 0,208.27l181.37 -72.24 180.96 72.24 0 -195.77c0,-37.02 -15.52,-73 -44.41,-96.58 -13.96,-11.41 -30.93,-20.02 -50.06,-20.02l-355.99 0z"/>
  <path class="fil21" d="M7644.2 5484.85c0,0 61.42,29.2 81.73,77.26l363.46 2.84c0,0 -14.25,-68.74 -89.2,-80.1l-355.99 0z"/>
  <path class="fil22" d="M10860.57 8053.57l0 4.47c0,7.17 -5.53,13.06 -12.2,13.06l-10761.65 0c-6.7,0 -12.22,-5.89 -12.22,-13.06l0 -4.47c0,-7.13 5.52,-13.02 12.22,-13.02l10761.65 0c6.67,0 12.2,5.89 12.2,13.02z"/>
  <path class="fil23" d="M5020.16 2938.91c0,0 66.08,103.44 103.75,320.89 32.97,190.44 61.92,260.75 109.57,299.8 47.64,39.05 313.12,154.35 313.12,154.35l-19.87 49.22c0,0 -389.09,-56.09 -432.8,-124.91 -43.71,-68.81 -210.31,-475.42 -197.38,-569.07 12.93,-93.64 123.61,-130.28 123.61,-130.28z"/>
  <path class="fil24" d="M5973 5210.44c-3.53,40.14 49.3,49.94 110.51,53.17 61.2,3.22 42.67,16.47 126.56,32.57 83.84,16.05 117.44,-8.24 123.52,-20.21 5.42,-10.66 -33.59,-27.28 -75.11,-46.07 -5.23,-2.37 -10.46,-4.78 -15.7,-7.2 -46.8,-21.78 -73,-66.15 -109.48,-107.28 -34.54,-38.96 -67.32,-163.78 -67.32,-163.78l-113.96 -25.75c0,0 31.99,112.3 43.13,160.26 6.53,28.17 -3.13,59.7 -11.68,83.7 -4.61,13.07 -9.26,26.42 -10.47,40.58z"/>
  <path class="fil25" d="M6083.51 5263.6c61.2,3.22 42.67,16.47 126.56,32.57 83.84,16.05 117.44,-8.24 123.52,-20.21 5.42,-10.66 -33.59,-27.28 -75.11,-46.07l-0.67 0.7c0,0 -58.96,21.22 -127,1.61 -55.48,-15.91 -109.13,-50.99 -147.33,-62.35 -4.61,13.07 -9.26,26.42 -10.47,40.58 -3.53,40.14 49.3,49.94 110.51,53.17z"/>
  <path class="fil26" d="M4838.26 3780.44c0,0 757.2,-60.31 899.78,34.91 142.54,95.21 371.15,1204.18 371.15,1204.18 0,0 -14.09,11.98 -45.63,15.59 -29.31,3.35 -93.86,-14.87 -93.86,-14.87 0,0 -328.56,-496.18 -351.68,-621.2 -23.14,-125 -17.5,-236.55 -70.19,-239.54 -52.71,-2.99 -709.65,84.52 -809.01,-100.74 -99.36,-185.26 -17.22,-368.65 -17.22,-368.65l116.68 90.34z"/>
  <path class="fil24" d="M5683.24 5339.17c-3.49,40.14 49.34,49.9 110.54,53.11 61.16,3.22 42.69,16.52 126.52,32.57 83.89,16.05 117.49,-8.19 123.53,-20.21 5.41,-10.61 -33.56,-27.28 -75.12,-46.07 -5.23,-2.37 -10.46,-4.78 -15.7,-7.2 -46.75,-21.73 -72.97,-66.14 -109.43,-107.28 -34.54,-38.96 -67.33,-163.76 -67.33,-163.76l-113.94 -25.76c0,0 31.99,112.34 43.09,160.26 6.53,28.22 -3.09,59.75 -11.63,83.76 -4.61,13.07 -9.26,26.42 -10.51,40.58z"/>
  <path class="fil25" d="M5793.78 5392.28c61.16,3.22 42.69,16.52 126.52,32.57 83.89,16.05 117.49,-8.19 123.53,-20.21 5.41,-10.61 -33.56,-27.28 -75.12,-46.07l-0.63 0.76c0,0 -58.96,21.16 -127.01,1.61 -55.47,-15.95 -109.11,-51.05 -147.32,-62.36 -4.61,13.07 -9.26,26.42 -10.51,40.58 -3.49,40.14 49.34,49.9 110.54,53.11z"/>
  <path class="fil27" d="M4689.95 3830.11c0,0 672.64,33.69 811.6,134.7 138.96,101 326.59,1218.59 326.59,1218.59 0,0 -14.54,11.36 -46.12,13.69 -29.44,2.13 -93.28,-18.76 -93.28,-18.76 0,0 -310.03,-509.33 -328.55,-635.22 -18.57,-125.85 -8.82,-237.08 -61.35,-242.23 -52.56,-5.15 -712.23,55.22 -804.7,-133.99 -92.48,-189.22 195.82,-336.77 195.82,-336.77z"/>
  <path class="fil28" d="M4991.13 2301.61c-25.72,-26.3 -61.33,-38.07 -86.97,-43.33 8.23,-5.34 21.66,-4.46 21.66,-4.46 -15.08,-6.71 -54,0.24 -54,0.24 -196.27,-147.91 -312.72,182.14 -327.26,262.21 -14.54,80.06 -41.16,194.6 -133.63,293.88 -237.16,254.61 101.64,549.24 101.64,549.24 1.44,1.51 170.05,-380.39 339.33,-441.75 48.64,-45.38 84.7,-139.07 87.47,-146.46 -24.74,75.33 -47.65,115.13 -64.65,136.43 151.67,-86.21 184.59,-536.31 116.41,-605.99z"/>
  <path class="fil24" d="M4661.68 2819.76c0,0 62.67,-6.29 125.27,0 42.59,4.28 84.74,18.26 108.76,28.88 59.28,26.22 53.06,137.3 -71.35,116.72 -124.38,-20.56 -171.39,-112.65 -162.67,-145.6z"/>
  <path class="fil24" d="M4890.43 2900.78c0.72,0.4 17.76,95.55 -63.7,91.74 -53.47,-2.49 -168.8,-70.96 -158.6,-119.41 4.83,-23.04 45.23,-82.78 53.37,-219.17l9.75 2.74 163.66 46.46c0,0 -7.25,54.96 -10.65,106.99 -2.86,43.69 -2.99,85.3 6.18,90.64z"/>
  <path class="fil23" d="M4894.9 2703.15c0,0 -7.25,54.96 -10.65,106.99 -92.65,-9.31 -136.05,-102.37 -153.01,-153.46l163.66 46.46z"/>
  <path class="fil28" d="M4715.81 2626.4c0,0 -28.09,-91.77 -23.04,-162.35 3.58,-50.4 70.06,-222.76 233.49,-150.99 0,0 48,18.52 86.3,64.2 30.47,36.31 69.83,107.58 -27.38,247.35l-28.19 48.48 -241.18 -46.68z"/>
  <path class="fil24" d="M4899.28 2782.91c0,0 -214.07,-54.14 -180.16,-194.7 33.91,-140.56 29.08,-242.21 167.23,-213.59 138.11,28.63 151.63,89.41 151.09,139.24 -0.54,49.83 -81.61,279.52 -138.16,269.06z"/>
  <path class="fil28" d="M4984.24 2397.51c0,0 -98.29,149.03 -193.76,149.09 -95.52,0.06 -128.22,-35.88 -128.22,-35.88 0,0 82.72,-39.11 121.42,-136.07 0,0 175.56,-67.55 200.57,22.85z"/>
  <path class="fil28" d="M4966.57 2406.97c0,0 34.62,48.64 36.59,87.31 1.97,38.67 -11.09,113.64 9.8,116.63 0,0 71.13,-100.11 37.04,-176.92 -36.11,-81.43 -83.44,-27.02 -83.44,-27.02z"/>
  <path class="fil29" d="M5142.7 3792.54c-17.76,22.52 -73.33,29.43 -132.69,39.76 -46.7,8.16 -95.78,18.39 -130.68,40.09 -79.23,49.23 -338.13,215.63 -414.01,208.06 -29.44,-2.92 -23.94,-62.37 -6.09,-141.22 28.06,-124.54 86.76,-297.48 86.76,-372.69 0,-41.04 12.92,-138.16 30.15,-249.2 1.38,-8.95 2.81,-17.97 4.25,-27.09 34.09,-215.9 81.29,-470.47 81.29,-470.47 0,0 52.66,121.57 155.25,121.57 102.57,0 78.73,-92.71 78.73,-92.71 0,0 93.64,11.66 115.74,36.87 22.14,25.21 78.2,134.18 89.34,163.89 0,0 2.28,37.83 -86.21,55.83 0,0 21.56,102.65 24.11,171.07 1.87,50.55 -32.61,208.76 -42.51,307.16 -3.53,34.85 -3.97,62.2 1.35,74.61 6.85,15.9 28.99,31.74 54.18,47.26 50.02,30.81 112.16,60.46 91.04,87.22z"/>
  <path class="fil30" d="M5051.66 3705.32c56.77,102.46 -153.99,133.27 -188.89,154.96 -79.22,49.23 -321.57,227.74 -397.45,220.17 -29.44,-2.92 -23.94,-62.37 -6.09,-141.22 28.06,-124.54 86.76,-297.48 86.76,-372.69 0,-41.04 12.92,-138.16 30.15,-249.2l91.3 -92.81c0,0 97.89,267.71 191.17,311.58 48.9,22.97 99.99,38.14 137.52,47.35 -3.53,34.85 -3.97,62.2 1.35,74.61 6.85,15.9 28.99,31.74 54.18,47.26z"/>
  <path class="fil24" d="M4633.62 2899.91c0,0 -78.11,-50.18 -153.63,45.02 -75.47,95.21 53.69,775.81 165.57,810.77 124.29,38.84 497.14,36.84 497.14,36.84l-15.57 -47.87c0,0 -387.4,-132.11 -403.28,-153.72 -15.88,-21.61 -50.55,-680.07 -90.24,-691.05z"/>
  <path class="fil29" d="M4661.68 2819.76c0,0 -160.39,15.32 -206.96,71.14 -46.57,55.83 -60.17,207.1 -60.17,207.1 0,0 141.24,120.67 311.39,73.84l-44.25 -352.08z"/>
  <path class="fil28" d="M5657.15 3547.66l15.29 -148.87 -198.94 277.42c0,0 83.3,43.89 88.18,35.5 4.87,-8.39 95.47,-164.05 95.47,-164.05z"/>
  <polygon class="fil29" points="5359.42,3547.66 5175.68,3844.64 5484.32,3844.64 5657.15,3547.66 "/>
  <polygon class="fil31" points="5657.15,3547.66 5671.59,3400.22 5567.59,3537.89 "/>
  <polygon class="fil31" points="5185.11,3829.39 5171.02,3818.73 5353.64,3531.53 5359.42,3547.66 "/>
  <polygon class="fil12" points="5353.64,3531.53 5644.4,3540.17 5657.15,3547.66 5359.42,3547.66 "/>
  <path class="fil24" d="M5292.93 3785.69c-5.68,-0.8 -12.97,-0.66 -19.81,-0.17 22.18,-10.94 44.56,-22.8 44.56,-22.8 0,0 -9.94,-10.8 -48.14,3.54 -4.3,1.61 -8.59,1.99 -12.84,1.5l53.51 -25.46c-9.54,-9.07 -35.17,-1.84 -55.12,5.91 -14.23,5.52 -30.15,3.06 -42.14,-6.81l-0.59 -0.5c0.9,-0.09 1.7,-0.15 2.63,-0.29 31.19,-4.86 39.15,-23.75 30.52,-21.59 -8.67,2.16 -61.02,6.19 -61.02,6.19 -23.68,-1.44 -70.56,17.68 -70.56,17.68l26.22 51.21c0,0 75.39,14.84 94.97,8.42 1.61,-0.52 3.49,-1.24 5.59,-2.07l68.54 -4.78c0,0 -1.25,-7.82 -16.33,-9.99z"/>
  <path class="fil32" d="M7943.69 5785.44c0,0 395.53,182.37 467.35,179.06 71.83,-3.31 514.3,-142.61 514.3,-142.61l-11.32 80.54c0,0 -341.37,207.84 -460.81,219.64 -117.5,11.6 -519.37,-111.64 -558.11,-137.63 -38.83,-26.04 -64.11,-172.62 48.6,-198.99z"/>
  <path class="fil33" d="M7884.31 5114.56c0,0 -145.93,-29.35 -218.59,26.85 -131.67,101.75 -138.73,452.48 -188.08,504.75 -49.35,52.22 -168.26,29.92 -178.86,300.3 -10.56,270.34 47.38,292.97 -21.66,413.66 -68.98,120.68 29.22,241.46 29.22,241.46 0,0 -40.22,-66.61 -23,-114.71 0,0 16.74,106.15 80.44,131 63.7,24.91 73.14,43.14 83.3,79.59 0,0 543.55,-294.73 544.14,-503.76 0.58,-209.08 106.96,-416.17 54.75,-506.74 0,0 23.22,38.78 26.06,81.87 0,0 31.32,-63.54 -22.93,-122.67 -54.36,-59.19 63.72,-181.62 46.16,-323.42 -11.91,-97.3 -76.41,-203.97 -210.94,-208.19z"/>
  <path class="fil24" d="M7991.8 5984.62c-34.74,25.52 -78.32,46.54 -132.99,59.9 -204.94,50.14 -283.5,-133.24 -313.04,-259.07 27.96,-16.91 54.27,-20.65 69.48,-22.59 14.8,-1.85 30.38,-3.08 43.26,-3.74 23.04,-18.65 57.35,-95.02 64.92,-213.57l9.66 2.75 161.5 46.78c0,0 -7.38,54.35 -11,105.72 -2.82,40.2 -3.27,78.59 3.93,88.01 12.62,2.89 20.18,4.78 20.18,4.78l0.09 0.15c2.15,3.79 49.07,85.37 84,190.89z"/>
  <path class="fil32" d="M7894.65 5595.12c0,0 -7.43,54.3 -11.05,105.71 -91.49,-9.7 -134,-101.93 -150.55,-152.5l161.6 46.78z"/>
  <path class="fil24" d="M7921.93 5646.16c0,0 -217.2,-12.69 -207.67,-155.77 9.57,-143.03 -12.04,-240.98 127.06,-238.95 139.06,2.04 162.39,58.66 170.1,107.19 7.81,48.57 -32.69,287.11 -89.49,287.53z"/>
  <path class="fil33" d="M8010.44 5278.61c-30.64,-45.55 -56.7,-38.02 -71.73,-26.18 -113.91,-78.02 -197.26,18.23 -197.26,18.23 -21.47,101.51 -95.38,155 -95.38,155 0,0 37.8,28.83 130.64,10.94 28.36,-5.44 54.67,-24.52 77.53,-48.29 -41.34,62.64 -94.76,105.96 -94.76,105.96 112.51,-44.98 167.09,-201.98 172.58,-218.59 12.39,13.58 36.69,42.94 42.84,70.35 8.3,37.21 44.31,95.46 65.19,94.46 0,0 16.2,-93.51 -29.67,-161.87z"/>
  <path class="fil34" d="M7483.91 6452.07c-19.6,-106.15 -83.57,-530.18 -19.6,-666.62 22.95,-49.01 113.1,-53.46 212.02,-49.15 30.77,21.03 148.03,100.52 196.17,90.57 0.54,-0.09 1.47,-0.33 2.73,-0.66 22.68,-6.01 31.23,-22.86 12.3,-37.41 -0.05,-0.04 49.04,-5.02 109.83,7.11 34.35,6.87 127.06,57.62 127.06,57.62 0,0 -46.75,89.2 -115.55,120.03 11.71,110.73 -5.66,159.64 -114.28,415.5 -91.76,216.28 12.39,410.95 12.39,410.95 0,0 -540.17,459.63 -543.16,225.61 -2.28,-176.17 145.17,-437.9 120.07,-573.54z"/>
  <path class="fil35" d="M7933.84 7299.78c29.28,-3.5 55.72,-20.56 72.12,-46.54 2.73,-4.12 5.46,-8.57 8.39,-13.31 61.48,-98.51 85.39,-400.16 223.77,-721.53 33.67,-78.26 154.58,-92.33 187.57,-180.76 0,0 81.09,-286.69 -155.36,-295.16 -236.46,-8.43 -633.32,797.68 -639.59,882.19 -6.09,81.91 -156.37,430 303.1,375.12z"/>
  <path class="fil33" d="M8873.71 7293.2l-336.58 0c0,0 -12.59,-56.81 9.46,-95.5 19.62,-34.19 12.1,-53.69 -2.44,-82 15.32,6.63 35.04,12.64 56.7,11.32 16.79,-1.04 34.55,-9.09 50.06,-18.65 14.54,17.52 76.61,91.9 95.93,106.62 21.96,16.75 120.13,10.8 126.86,78.21z"/>
  <path class="fil36" d="M7519.38 5896.61c0,0 -43.8,421.8 240.34,510.19 284.1,88.35 364.71,-388.14 135.37,-422.36 -229.42,-34.28 -375.72,-87.83 -375.72,-87.83z"/>
  <path class="fil21" d="M8433.3 6125.39c20.4,160.78 99.54,668.33 239.09,915.94 45.08,79.82 -113.4,124.61 -114.28,124.37 -21.27,-5.92 -56.6,-41.76 -72.9,-57.33 -113.4,-108.1 -343.51,-414.22 -343.51,-659.62 0,-119.69 -1.95,-348.22 80.22,-406.32 50.65,-35.8 203.37,19.07 211.38,82.95z"/>
  <path class="fil20" d="M7733.05 7293.2c0,0 12.48,-18.37 34.22,-53.27 25.91,-41.46 54.54,-123.13 89.3,-227.81 36.5,-109.89 79.8,-245.06 133.96,-385.73 16.69,-43.41 34.45,-87.34 53.28,-131.23 33.67,-78.22 126.38,-67.43 159.36,-155.87 0,0 128.62,-306.61 -107.93,-315.08 -236.44,-8.43 -685.8,820.22 -711.61,900.46 -28.27,87.88 -166.2,452.72 349.41,368.54z"/>
  <path class="fil16" d="M8626.62 7293.2l-336.58 0c0,0 -12.59,-56.81 9.46,-95.5 19.62,-34.19 12.1,-53.69 -2.34,-82 15.22,6.63 34.94,12.64 56.6,11.32 16.79,-1.04 34.55,-9.09 50.06,-18.65 14.54,17.52 76.61,91.9 95.93,106.62 22.06,16.75 120.13,10.8 126.87,78.21z"/>
  <path class="fil21" d="M7856.57 7012.12c36.5,-109.89 79.8,-245.06 133.96,-385.73 -14.15,-106.57 -44.69,-199.79 -95.94,-237.34 0,0 -124.37,407.78 -38.02,623.07z"/>
  <path class="fil20" d="M8236.85 6113.97c20.3,160.78 48.89,679.74 188.44,927.35 45.09,79.82 -113.4,124.61 -114.27,124.37 -21.18,-5.92 -56.6,-41.76 -72.9,-57.33 -113.4,-108.1 -343.47,-414.22 -343.47,-659.62 0,-119.69 132.68,-338.62 214.95,-396.71 50.65,-35.78 119.25,-1.93 127.26,61.93z"/>
  <path class="fil34" d="M7962.63 5563.87c0,0 -20.59,-8.61 -78.31,-3.65 0,0 3.04,23.87 45.72,26.23 24.11,1.32 32.59,-22.59 32.59,-22.59z"/>
  <polygon class="fil28" points="8967.5,5653.39 8897.72,5520.17 8746.75,5965.97 8835.85,6067.15 "/>
  <polygon class="fil29" points="8603.2,5731.47 8462.87,6155.69 8835.85,6067.15 8967.5,5653.39 "/>
  <polygon class="fil31" points="8470.28,6134.29 8463.74,6122.21 8596.46,5720.72 8603.2,5731.47 "/>
  <polygon class="fil12" points="8596.46,5720.72 8950.13,5647.9 8967.5,5653.39 8603.2,5731.47 "/>
  <polygon class="fil31" points="8967.5,5653.39 8892.06,5526.66 8843.95,5669.78 8950.13,5647.9 "/>
  <path class="fil24" d="M8710.84 5792.88c-12.1,-2.46 -38.16,-12.83 -64.51,-20.51 7.91,-6.48 16.69,-14.44 19.03,-22.58 4.69,-15.72 7.91,-20.74 -7.81,-15.77 -15.61,4.98 -70.46,31.58 -70.46,31.58l0.1 0.09c-31.13,9.61 -59.82,56.2 -59.82,56.2 0,0 -385.67,143.45 -432.12,145.92 -71.73,3.83 -549.47,-182.37 -549.47,-182.37 -112.74,26.37 -87.42,172.95 -48.63,198.99 38.8,25.99 382.56,158.32 586.3,160.83 103.15,1.28 478.57,-254.06 478.57,-254.06 0,0 43.82,-21.2 78.36,-14.58 34.45,6.63 114.37,0 131.55,-29.87 17.27,-29.84 -40.7,-49.72 -61.09,-53.88z"/>
  <path class="fil34" d="M7791.93 5877.29c0,0 -42.72,143.13 -189.47,175.7 0,0 -242.34,-79.02 -121.69,-253.72 0,0 119.31,-93.8 311.15,78.02z"/>
  <path class="fil24" d="M8961.25 5803.67l0 0c0,-3.94 -0.3,-7.86 -1.37,-11.6 0,0 -34.55,-57.91 -45.87,-60.27 -34.45,-7.2 -34.45,40.85 -27.13,71.87 5.07,21.58 18.05,42.32 28.59,53.5l-0.09 0 -1.37 45.26c58.26,-33.85 47.23,-98.76 47.23,-98.76z"/>
  <path class="fil20" d="M5908.31 6508.74c0,0 -61.42,39.72 -81.78,104.96 -3.58,11.41 -5.91,23.67 -6.39,36.5 -3.36,86.73 0,282.98 0,282.98l-181.38 -98.14 -180.87 98.14 0 -265.98c0,-50.28 15.53,-99.24 44.33,-131.23 13.96,-15.54 30.92,-27.22 50.1,-27.22l355.98 0z"/>
  <path class="fil21" d="M5908.31 6508.74c0,0 -61.42,39.72 -81.78,104.96l-363.5 3.88c0,0 14.28,-93.41 89.3,-108.84l355.98 0z"/>
  <path class="fil20" d="M2337.92 5239.13c0,0 38.54,176.92 150.83,176.92 96.25,0 228.29,-230.28 228.29,-230.28l-379.12 53.36z"/>
  <path class="fil16" d="M3620.89 7867.83l-64.43 36.17c0,0 -348.42,-390.98 -432.17,-766.14 -14.94,-66.99 -20.98,-133.05 -14.58,-195.73 0,0 -5.11,-17 -13.97,-47.06 -0.35,-1.28 -0.75,-2.66 -1.16,-3.98 -3.9,-13.21 -8.54,-28.69 -13.69,-46.26 -16.81,-56.68 -39.94,-134.27 -66.25,-222.62 -60.66,-203.26 -199.35,-661.66 -258.63,-852.31l425.99 -163.11c0,0 48.37,116.76 117.89,434.11 10.73,41.42 21.47,87.26 31.45,137.16 11.36,56.54 21.96,118.32 30.82,185.12 14.95,113.11 24.92,240.37 25.51,379.99 0.26,56.77 -1.08,115.67 -4.26,176.42 -2.32,44.54 3.94,103.91 15.65,171.48 53.69,308.74 221.82,776.75 221.82,776.75z"/>
  <path class="fil33" d="M3854.1 8040.55l-344.39 0c0,0 -12.84,-58.13 9.75,-97.67 19.99,-35.04 12.34,-54.97 -2.46,-83.9 15.57,6.72 35.74,12.88 57.98,11.56 17.19,-1.04 35.3,-9.29 51.22,-19.09 14.81,17.9 78.3,94.03 98.12,109.09 22.5,17.13 122.85,11.03 129.78,80.01z"/>
  <path class="fil33" d="M3362.16 6363.2l-267.58 527.91c-3.9,-13.21 -8.54,-28.69 -13.69,-46.26 -16.81,-56.68 -39.94,-134.27 -66.25,-222.62 -60.66,-203.26 -199.35,-661.66 -258.63,-852.31l425.99 -163.11c0,0 48.37,116.76 117.89,434.11 10.73,41.42 21.47,87.26 31.45,137.16 11.36,56.54 21.96,118.32 30.82,185.12z"/>
  <path class="fil33" d="M2749.07 7926.45c0,0 -23.84,61.92 -1.39,114.1l187.32 0c0,0 3.89,-47.06 -64.07,-101.65 -51.5,-41.34 -121.87,-12.45 -121.87,-12.45z"/>
  <path class="fil30" d="M2952.94 3896.71c0.1,-9.87 4.92,-116.28 157.67,-125.73 0,0 -74.94,11.4 -87.16,46.71 0,0 50.2,-44.54 92.21,-31.69 42,12.83 68.26,89.51 69.07,114.92 0.85,25.42 -20.44,107.96 -46.76,115.62 -9.97,2.89 -21.52,2.48 -32.03,0.86 7.29,11.45 14.49,24.11 21.38,38.27 64.02,130.98 8.81,285.27 -43.17,272.27 -33.33,-8.33 -53.59,52.8 -53.59,52.8l-320.6 -291.74c0,0 112.34,-261.87 242.98,-192.3z"/>
  <path class="fil24" d="M2751.44 4783.24c35.52,26.09 80.08,47.58 136.05,61.26 209.74,51.28 290.08,-136.3 320.28,-265.09 -28.63,-17.33 -55.52,-21.12 -71.04,-23.1 -15.17,-1.89 -31.14,-3.13 -44.33,-3.83 -23.54,-19.09 -58.61,-97.2 -66.4,-218.51l-9.84 2.8 -165.31 47.88c0,0 7.56,55.6 11.28,108.17 2.86,41.09 3.31,80.4 -4.03,90.06 -12.88,2.93 -20.62,4.87 -20.62,4.87l-0.09 0.15c-2.24,3.88 -50.2,87.3 -85.94,195.34z"/>
  <path class="fil32" d="M2850.84 4384.68c0,0 7.61,55.55 11.28,108.14 93.63,-9.89 137.07,-104.26 154.03,-156l-165.31 47.87z"/>
  <path class="fil24" d="M2848.93 4468.1c0,0 215.59,-58.61 179.04,-200.14 -36.6,-141.53 -33.38,-244.41 -172.59,-212.96 -139.18,31.45 -151.89,93.17 -150.5,143.54 1.34,50.39 87.01,281.16 144.06,269.56z"/>
  <path class="fil30" d="M2690.82 4118.03c22.15,-52.21 49.61,-50.15 66.97,-41.44 99.64,-102.35 201.41,-23.4 201.41,-23.4 40.72,97.35 124.95,135.4 124.95,135.4 0,0 -32.48,36.93 -129.02,38.61 -29.48,0.51 -59.46,-13.07 -86.89,-32.12 53.28,54.14 115.07,86.35 115.07,86.35 -121.42,-21.39 -205.8,-167.38 -214.48,-182.89 -9.89,16.26 -28.67,50.81 -29.66,79.61 -1.35,39.13 13.07,114.7 -8,118.12 0,0 -73.55,-99.95 -40.36,-178.23z"/>
  <path class="fil24" d="M2786.92 4575.96c0,0 362.06,-93.04 519.54,44.41l-78.69 1161.28 -708.17 -181.05c0,0 19.93,-73.47 155.73,-268.87 135.79,-195.39 76.72,-482.03 111.58,-755.77z"/>
  <path class="fil16" d="M2998 5652.41c0,0 -0.4,3.93 -1.17,11.41 -0.31,3.21 -0.71,7.15 -1.16,11.69 -3.04,30.11 -8.81,87.82 -16.28,162.96 -19.42,196.92 -49.93,513.28 -70.69,762.93 -16.24,195.25 -26.57,349.74 -20.98,374.55 16.74,74.67 0,967.12 0,967.12 -60.22,30.54 -151.49,0 -151.49,0 0,0 -160.3,-804.26 -137.85,-916.03 22.45,-111.79 -15.01,-207.19 -15.01,-207.19 -124.47,-613.5 -110.85,-953.48 -86.12,-1116.26 7.18,-47.34 15.32,-79.68 21.28,-99.41 5.04,-16.77 8.54,-24.44 8.54,-24.44 274.57,-78.17 470.93,72.68 470.93,72.68z"/>
  <path class="fil37" d="M3355.27 4951.6c-17.49,139.71 -87.41,310.68 -112.39,402.67 0,0 41.75,319.48 1.89,407.22 -4.52,10 -10.11,17 -17,20.17 -147.64,68.08 -722.7,1.94 -746.98,-194.35 -8.81,-71.35 219.03,-322.23 232.31,-352.68 5.5,-12.59 11.37,-53.4 -15.34,-138 -37.85,123.57 -246.85,88.01 -246.85,88.01 24.52,-44.41 85.65,-351.73 153.88,-490.44 51.32,-104.26 188.31,-119.37 188.31,-119.37 0,0 57,95.69 194.89,82.1 137.88,-13.54 163.07,-102.88 163.07,-102.88 0,0 122.31,17.24 159.98,49.39 6.54,5.58 67.16,165.14 44.25,348.17z"/>
  <path class="fil38" d="M3242.89 5354.27c0,0 41.75,319.48 1.89,407.22 -107.59,-57.14 -247.81,-180.47 -205.12,-373.23 62,-280.04 315.62,-436.66 315.62,-436.66 -17.49,139.71 -87.41,310.68 -112.39,402.67z"/>
  <polygon class="fil29" points="2793.8,4976.46 3040.36,5395.08 2620.83,5395.08 2385.91,4985.54 "/>
  <polygon class="fil31" points="3027.57,5374.06 3031.82,5359.43 2798.46,4963.29 2793.8,4976.46 "/>
  <polygon class="fil12" points="2798.46,4963.29 2403.25,4975.22 2385.91,4985.54 2793.8,4976.46 "/>
  <polygon class="fil28" points="2385.91,4985.54 2164.19,4858.52 2422.65,5288.03 2620.83,5395.08 "/>
  <path class="fil24" d="M3559.19 5278.9c-23.71,11.45 -84.69,87.44 -106.43,95.16 -97.84,34.66 -514.17,-57.52 -514.17,-57.52l12.88 -77.17c0,0 408.63,11.46 453.55,-1.24 8.46,-2.41 52.62,-75.5 69.62,-86.02l84.55 126.79z"/>
  <path class="fil24" d="M2951.51 5239.31c0,0 -49.3,-42.43 -82.58,-32.81 -33.29,9.61 -82.31,54.17 -100.48,64.72 -18.21,10.56 -67.64,48.29 -42.59,71.11 25.05,22.81 103.04,3.22 133.95,-14.3 30.91,-17.46 78.78,-11.5 78.78,-11.5l12.92 -77.22z"/>
  <path class="fil24" d="M2878.36 5205.09c0,0 -59.9,-7.53 -76.28,-7.2 -16.33,0.38 -11.91,4.16 -2.87,17.57 9.04,13.44 40.22,18.6 41.65,23.29 1.43,4.69 37.49,-33.66 37.49,-33.66z"/>
  <path class="fil39" d="M3151.05 4554.04c0,0 177.61,22.3 226.5,102.88 61.83,101.93 207.77,507.78 203.02,610.05 0,0 -106.65,192.17 -472.47,161.4 0,0 -38.08,-142.28 38.88,-189.24 0,0 187.9,-35.37 209.55,-55.54l-62.82 -276.07 -142.66 -353.48z"/>
  <path class="fil24" d="M2442.72 5138.57c-5.51,-23.67 -54.29,-8.9 -70.74,4.73 -3.99,3.31 -8.28,8.94 -12.49,15.54 -0.52,-3.94 -0.96,-7.77 -1.21,-10.71 -0.93,-11.13 -13.17,-31.06 -16.21,-16.15 -3.03,14.91 -8.04,77.6 -8.04,77.6 -0.59,50.52 30.07,71.3 49.77,54.88 19.69,-16.39 64.43,-102.22 58.93,-125.89z"/>
  <path class="fil19" d="M5880 5595.12c0,0 39.81,32.28 52.89,85.35 2.34,9.29 3.8,19.18 4.1,29.64 2.24,70.5 0,230.06 0,230.06l117.5 -79.78 117.2 79.78 0 -216.23c0,-40.91 -10.15,-80.68 -28.79,-106.71 -8.98,-12.6 -20.01,-22.11 -32.4,-22.11l-230.5 0z"/>
  <path class="fil40" d="M5880 5595.12c0,0 39.81,32.28 52.89,85.35l235.38 3.13c0,0 -9.27,-75.95 -57.77,-88.48l-230.5 0z"/>
  <path class="fil41" d="M7626.22 1396.12l0 0c0,87.79 71.83,159.62 159.62,159.62l0 0c-87.79,0 -159.62,71.83 -159.62,159.62l0 0c0,-87.79 -71.83,-159.62 -159.62,-159.62l0 0c87.79,0 159.62,-71.83 159.62,-159.62z"/>
  <path class="fil41" d="M3136.14 1715.82l0 0c0,87.79 71.83,159.62 159.62,159.62l0 0c-87.79,0 -159.62,71.83 -159.62,159.62l0 0c0,-87.79 -71.83,-159.62 -159.62,-159.62l0 0c87.79,0 159.62,-71.83 159.62,-159.62z"/>
  <path class="fil41" d="M606.39 5611.07l0 0c0,59.32 48.54,107.85 107.86,107.85l0 0c-59.32,0 -107.86,48.54 -107.86,107.86l0 0c0,-59.32 -48.54,-107.86 -107.86,-107.86l0 0c59.32,0 107.86,-48.54 107.86,-107.85z"/>
  <path class="fil41" d="M8417.32 2644.31l0 0c0,59.32 48.54,107.86 107.86,107.86l0 0c-59.32,0 -107.86,48.54 -107.86,107.86l0 0c0,-59.32 -48.54,-107.86 -107.86,-107.86l0 0c59.32,0 107.86,-48.54 107.86,-107.86z"/>
  <path class="fil42" d="M5713.87 1452.48l0 0c0,99.69 81.57,181.26 181.26,181.26l0 0c-99.69,0 -181.26,81.57 -181.26,181.26l0 0c0,-99.69 -81.57,-181.26 -181.26,-181.26l0 0c99.69,0 181.26,-81.57 181.26,-181.26z"/>
  <path class="fil42" d="M6969.91 2491.1l0 0c0,75.49 61.77,137.26 137.26,137.26l0 0c-75.49,0 -137.26,61.77 -137.26,137.26l-0 0c0,-75.49 -61.77,-137.26 -137.26,-137.26l0 -0c75.49,0 137.26,-61.77 137.26,-137.26z"/>
  <path class="fil42" d="M2479.83 2810.81l0 0c0,75.49 61.77,137.26 137.26,137.26l0 0c-75.49,0 -137.26,61.77 -137.26,137.26l-0 0c0,-75.49 -61.77,-137.26 -137.26,-137.26l0 -0c75.49,0 137.26,-61.77 137.26,-137.26z"/>
  <path class="fil42" d="M1523.16 6737.13l0 0c0,77.98 63.81,141.8 141.8,141.8l0 0c-77.98,0 -141.8,63.81 -141.8,141.8l-0 0c0,-77.98 -63.81,-141.8 -141.8,-141.8l0 -0c77.98,0 141.8,-63.81 141.8,-141.8z"/>
  <path class="fil42" d="M9079.81 4768.57l0 0c0,83.89 68.64,152.52 152.52,152.52l0 17.78c-83.89,0 -152.52,68.64 -152.52,152.52l-0 0c0,-83.89 -68.64,-152.52 -152.52,-152.52l0 -17.78c83.89,0 152.52,-68.64 152.52,-152.52z"/>
  <path class="fil43" d="M9069.89 2049.96l0 0c0,77.98 63.81,141.8 141.8,141.8l0 0c-77.98,0 -141.8,63.81 -141.8,141.8l-0 0c0,-77.98 -63.81,-141.8 -141.8,-141.8l0 -0c77.98,0 141.8,-63.81 141.8,-141.8z"/>
  <path class="fil43" d="M4579.81 2369.66l0 0c0,77.98 63.81,141.8 141.8,141.8l0 0c-77.98,0 -141.8,63.81 -141.8,141.8l-0 0c0,-77.98 -63.81,-141.8 -141.8,-141.8l0 -0c77.98,0 141.8,-63.81 141.8,-141.8z"/>
  <path class="fil43" d="M1050.65 3888.56l0 0c0,75.01 61.37,136.38 136.38,136.38l0 0c-75.01,0 -136.38,61.37 -136.38,136.38l0 0c0,-75.01 -61.37,-136.38 -136.38,-136.38l0 0c75.01,0 136.38,-61.37 136.38,-136.38z"/>
  <path class="fil43" d="M1797.09 5310.28l0.01 0c0,79.34 64.92,144.26 144.26,144.26l0 0.01c-79.34,0 -144.26,64.92 -144.26,144.26l-0.01 0c0,-79.34 -64.92,-144.26 -144.26,-144.26l0 -0.01c79.34,0 144.26,-64.92 144.26,-144.26z"/>
  <path class="fil43" d="M9374.47 3144.32l0 0c0,85.35 69.83,155.18 155.18,155.18l0 18.09c-85.35,0 -155.18,69.83 -155.18,155.18l-0 0c0,-85.35 -69.83,-155.18 -155.18,-155.18l0 -18.09c85.35,0 155.18,-69.83 155.18,-155.18z"/>
 </g>
</svg>
